HIERARCHY
ROOT Hips
{
	OFFSET 0.00000 0.00000 0.00000
	CHANNELS 6 Xposition Yposition Zposition Zrotation Yrotation Xrotation 
	JOINT LHipJoint
	{
		OFFSET 0 0 0
		CHANNELS 3 Zrotation Yrotation Xrotation
		JOINT LeftUpLeg
		{
			OFFSET 1.62329 -1.80800 0.67318
			CHANNELS 3 Zrotation Yrotation Xrotation
			JOINT LeftLeg
			{
				OFFSET 2.57139 -7.06484 0.00000
				CHANNELS 3 Zrotation Yrotation Xrotation
				JOINT LeftFoot
				{
					OFFSET 2.52017 -6.92413 0.00000
					CHANNELS 3 Zrotation Yrotation Xrotation
					JOINT LeftToeBase
					{
						OFFSET 0.23295 -0.64001 2.10214
						CHANNELS 3 Zrotation Yrotation Xrotation
						End Site
						{
							OFFSET 0.00000 -0.00000 1.10139
						}
					}
				}
			}
		}
	}
	JOINT RHipJoint
	{
		OFFSET 0 0 0
		CHANNELS 3 Zrotation Yrotation Xrotation
		JOINT RightUpLeg
		{
			OFFSET -1.48061 -1.80800 0.67318
			CHANNELS 3 Zrotation Yrotation Xrotation
			JOINT RightLeg
			{
				OFFSET -2.63258 -7.23296 0.00000
				CHANNELS 3 Zrotation Yrotation Xrotation
				JOINT RightFoot
				{
					OFFSET -2.54779 -7.00000 0.00000
					CHANNELS 3 Zrotation Yrotation Xrotation
					JOINT RightToeBase
					{
						OFFSET -0.23067 -0.63376 2.12161
						CHANNELS 3 Zrotation Yrotation Xrotation
						End Site
						{
							OFFSET -0.00000 -0.00000 1.11000
						}
					}
				}
			}
		}
	}
	JOINT LowerBack
	{
		OFFSET 0 0 0
		CHANNELS 3 Zrotation Yrotation Xrotation
		JOINT Spine
		{
			OFFSET -0.02108 2.07573 -0.16981
			CHANNELS 3 Zrotation Yrotation Xrotation
			JOINT Spine1
			{
				OFFSET 0.05070 2.08439 -0.03141
				CHANNELS 3 Zrotation Yrotation Xrotation
				JOINT Neck
				{
					OFFSET 0 0 0
					CHANNELS 3 Zrotation Yrotation Xrotation
					JOINT Neck1
					{
						OFFSET -0.10731 1.60408 0.31370
						CHANNELS 3 Zrotation Yrotation Xrotation
						JOINT Head
						{
							OFFSET 0.08411 1.65679 -0.30822
							CHANNELS 3 Zrotation Yrotation Xrotation
							End Site
							{
								OFFSET 0.03911 1.69149 -0.14146
							}
						}
					}
				}
				JOINT LeftShoulder
				{
					OFFSET 0 0 0
					CHANNELS 3 Zrotation Yrotation Xrotation
					JOINT LeftArm
					{
						OFFSET 3.52315 0.73219 -0.54694
						CHANNELS 3 Zrotation Yrotation Xrotation
						JOINT LeftForeArm
						{
							OFFSET 5.32462 -0.00000 -0.00000
							CHANNELS 3 Zrotation Yrotation Xrotation
							JOINT LeftHand
							{
								OFFSET 3.48402 -0.00000 -0.00000
								CHANNELS 3 Zrotation Yrotation Xrotation
								JOINT LeftFingerBase
								{
									OFFSET 0 0 0
									CHANNELS 3 Zrotation Yrotation Xrotation
									JOINT LeftHandIndex1
									{
										OFFSET 0.57248 -0.00000 -0.00000
										CHANNELS 3 Zrotation Yrotation Xrotation
										End Site
										{
											OFFSET 0.46154 -0.00000 -0.00000
										}
									}
								}
								JOINT LThumb
								{
									OFFSET 0 0 0
									CHANNELS 3 Zrotation Yrotation Xrotation
									End Site
									{
										OFFSET 0.46859 -0.00000 0.46859
									}
								}
							}
						}
					}
				}
				JOINT RightShoulder
				{
					OFFSET 0 0 0
					CHANNELS 3 Zrotation Yrotation Xrotation
					JOINT RightArm
					{
						OFFSET -3.41766 0.93592 -0.10019
						CHANNELS 3 Zrotation Yrotation Xrotation
						JOINT RightForeArm
						{
							OFFSET -5.33589 -0.00000 -0.00000
							CHANNELS 3 Zrotation Yrotation Xrotation
							JOINT RightHand
							{
								OFFSET -3.64134 -0.00000 -0.00000
								CHANNELS 3 Zrotation Yrotation Xrotation
								JOINT RightFingerBase
								{
									OFFSET 0 0 0
									CHANNELS 3 Zrotation Yrotation Xrotation
									JOINT RightHandIndex1
									{
										OFFSET -0.73481 -0.00000 -0.00000
										CHANNELS 3 Zrotation Yrotation Xrotation
										End Site
										{
											OFFSET -0.59242 -0.00000 -0.00000
										}
									}
								}
								JOINT RThumb
								{
									OFFSET 0 0 0
									CHANNELS 3 Zrotation Yrotation Xrotation
									End Site
									{
										OFFSET -0.60147 -0.00000 0.60147
									}
								}
							}
						}
					}
				}
			}
		}
	}
}
MOTION
Frames: 15
Frame Time: 0.0289855
0.00 0.00 0.00 178.8970 -11.2631 -169.7190 0.0000 0.0000 0.0000 -24.1954 -0.9278 -19.5858 2.3974 9.6488 27.8469 0.0516 7.9165 -12.3005 1.0170 -6.4160 -17.9963 0.0000 0.0000 0.0000 21.0142 9.8709 -16.8876 -2.9903 -10.6794 31.2060 -0.6064 3.6704 -13.9199 -0.3133 -3.5980 9.9484 -3.3402 -1.0171 3.3551 0.7653 -1.4947 -1.4020 2.7528 -0.6679 -3.2214 -14.9845 -1.3937 -23.4077 3.8054 1.3114 31.8770 4.2541 -1.2806 14.9436 0.0000 0.0000 0.0000 -85.1770 5.1255 42.3616 73.6183 -58.9613 -45.8625 -0.0000 -0.0000 19.6043 61.6147 25.4173 38.4597 -7.1250 0.0000 -0.0000 52.8075 67.8801 32.3513 0.0000 0.0000 0.0000 78.1937 10.4614 60.4969 -103.6582 59.2833 -71.7999 0.0000 0.0000 57.2334 58.1349 -12.2113 -18.7924 7.1250 -0.0000 -0.0000 47.2632 -22.7436 44.3355
0.00 0.00 0.00 178.6030 -11.9595 -169.5160 0.0000 0.0000 0.0000 -24.0656 -1.2133 -18.9187 2.2824 9.4311 27.1533 0.0504 7.6015 -11.8683 0.7807 -5.6411 -15.7465 0.0000 0.0000 0.0000 20.9464 9.3930 -16.2246 -2.8235 -10.4037 30.2942 -0.5431 4.1419 -13.1274 -0.4504 -4.3057 11.9384 -3.2726 -0.8039 2.2785 1.0438 -1.1626 -1.2042 2.9599 -0.5199 -2.4299 -14.7833 -1.5178 -22.6035 2.9843 1.0377 32.2517 3.8105 -1.5609 14.9938 -0.0000 0.0000 0.0000 -83.9951 5.5014 48.2663 94.2655 -59.9311 -63.6932 -0.0000 -0.0000 32.8849 57.3735 18.3158 26.1457 -7.1250 0.0000 -0.0000 35.0095 57.8905 12.0059 -0.0000 0.0000 0.0000 78.7244 9.4589 59.8033 -101.3680 59.5060 -69.8287 0.0000 0.0000 58.0701 52.4368 -13.9501 -17.4042 7.1250 -0.0000 -0.0000 50.9229 -31.0516 30.5179
0.00 0.00 0.00 180.8590 -14.0613 -168.1160 0.0000 0.0000 0.0000 -24.5362 3.7417 -28.2937 3.3879 11.2980 33.2917 0.4877 -1.1279 -12.8490 0.4515 -4.3108 -11.9527 0.0000 0.0000 0.0000 20.8388 9.8337 -21.6109 -4.8738 -13.2403 40.2746 -1.6651 10.6562 -23.2251 -0.5240 4.6389 -12.8815 -5.1749 -1.6538 2.4153 0.9526 -2.3353 0.8115 3.9393 -1.1848 -0.2721 -11.2625 2.9223 -18.2271 0.7699 4.6092 38.9560 2.8239 -0.9425 16.9790 -0.0000 0.0000 0.0000 -82.1252 -27.1435 63.2826 70.9761 -58.5874 -43.6029 -0.0000 -0.0000 42.9429 56.0351 29.5999 36.2513 -7.1250 0.0000 -0.0000 44.5218 70.9453 29.3083 -0.0000 0.0000 0.0000 75.9094 -4.5508 58.3327 -87.1156 59.9685 -57.5023 0.0000 0.0000 53.6315 -22.5096 -7.3633 3.0402 7.1250 -0.0000 -0.0000 3.6795 -37.9196 0.6424
0.00 0.00 0.00 181.2670 -16.4447 -168.7100 0.0000 0.0000 0.0000 -23.8877 3.8256 -29.5125 3.6862 11.7307 34.7857 0.4635 -3.4803 -12.1410 0.4879 -4.4790 -12.4282 0.0000 0.0000 0.0000 22.3621 6.8145 -23.6130 -7.9789 -16.1037 52.4867 -1.4886 1.7896 -22.5620 -0.1463 2.4650 -6.7926 -5.0986 -2.3728 4.0016 1.0214 -3.3890 1.3558 4.0477 -1.7277 -0.4868 -11.0283 3.4106 -17.9860 0.7215 5.1308 39.3219 2.8477 -0.7552 17.0741 0.0000 -0.0000 0.0000 -80.0008 -30.5477 64.5775 72.0448 -58.7461 -44.5158 -0.0000 -0.0000 41.0563 59.7429 33.5647 43.4638 -7.1250 0.0000 -0.0000 64.0435 75.3355 49.7708 0.0000 -0.0000 0.0000 78.4377 0.9986 58.0800 -64.5532 57.4060 -38.1543 0.0000 0.0000 53.3535 -30.2332 -5.5872 3.2475 7.1250 -0.0000 -0.0000 -2.9783 -36.4259 -0.6287
0.00 0.00 0.00 180.3100 -22.7647 -166.9050 0.0000 0.0000 0.0000 -24.4515 3.7931 -38.4963 5.8755 14.3066 44.4799 0.4663 -11.4712 -13.6170 0.2005 -2.8835 -7.9544 0.0000 0.0000 0.0000 22.5863 3.3796 -23.4553 -5.8928 -14.3237 44.5500 -0.0544 -4.1245 -7.7096 -0.0058 0.4909 -1.3489 -5.6753 -2.9714 6.3213 0.8307 -4.3653 1.3000 4.3575 -2.1810 -1.7052 -10.5671 2.2317 -17.5744 0.9989 3.2024 38.7095 2.5635 -1.2770 16.8018 -0.0000 0.0000 0.0000 -79.4254 -38.5688 68.0970 74.6173 -59.0867 -46.7190 -0.0000 -0.0000 38.4325 53.3442 33.6884 36.6992 -7.1250 0.0000 -0.0000 42.7732 74.6006 31.1664 -0.0000 0.0000 0.0000 82.1562 4.9298 54.4202 -49.7561 52.8966 -25.9795 0.0000 0.0000 53.6947 -37.6131 -3.6923 2.8405 7.1250 -0.0000 -0.0000 -9.0648 -34.5251 -2.3553
0.00 0.00 0.00 179.7760 -27.1395 -163.3170 0.0000 0.0000 0.0000 -25.4058 3.7722 -50.6699 8.8637 16.7192 55.6175 0.1012 -16.9386 -12.8738 0.0070 -0.5388 -1.4805 0.0000 0.0000 0.0000 21.5990 7.9825 -23.4181 -2.5198 -9.8738 28.5689 0.6409 -14.2890 -2.3052 -0.1295 -2.3195 6.3894 -5.6764 -3.1873 6.6898 0.8161 -4.6706 0.8202 4.4084 -2.2920 -2.3737 -10.7099 1.3402 -17.3212 1.5978 1.8094 38.2788 2.6226 -1.6656 16.6104 0.0000 -0.0000 0.0000 -80.7531 -44.9705 69.7431 79.0647 -59.5433 -50.5443 -0.0000 -0.0000 37.5500 47.6473 31.6111 29.8977 -7.1250 0.0000 -0.0000 26.5477 70.7850 16.7050 0.0000 -0.0000 0.0000 84.5829 3.6008 48.9302 -53.8243 54.4261 -29.2573 0.0000 0.0000 58.2289 -48.5793 -4.6705 5.2730 7.1250 -0.0000 -0.0000 -18.3779 -36.4477 -4.0347
0.00 0.00 0.00 178.5180 -32.8446 -161.9330 0.0000 0.0000 0.0000 -25.1496 1.5341 -62.1017 13.2751 18.8793 69.9779 -0.6969 -21.5787 -9.1334 0.1772 2.7119 7.4775 0.0000 0.0000 0.0000 21.2748 7.6100 -23.0620 -1.1422 -6.7866 19.0848 1.1956 -19.9091 -0.8050 -0.2394 -3.1489 8.6937 -5.0324 -3.4499 10.8669 0.7702 -5.2240 1.1355 4.3658 -2.5230 -4.3682 -11.5200 0.5602 -17.0790 3.1613 0.2648 38.6754 3.2071 -2.1728 16.8758 -0.0000 0.0000 0.0000 -84.3174 -54.7561 71.8051 83.5644 -59.8429 -54.4295 -0.0000 -0.0000 35.0339 42.8498 31.5610 25.8977 -7.1250 0.0000 -0.0000 17.2314 69.2275 10.1073 -0.0000 0.0000 0.0000 83.0725 1.0546 46.4916 -77.3622 59.3878 -49.0778 0.0000 0.0000 60.0957 -50.0035 -6.9892 8.2522 7.1250 -0.0000 -0.0000 -20.3040 -39.9223 -2.6691
0.00 0.00 0.00 177.2750 -36.5699 -162.0620 0.0000 0.0000 0.0000 -23.8282 -0.5423 -68.2377 16.8100 19.7543 80.6363 -1.0935 -22.8478 -6.4923 0.2981 3.5106 9.7037 0.0000 0.0000 0.0000 23.0891 3.2920 -21.2470 -0.6532 -5.1697 14.3932 1.9941 -24.8947 -2.5662 -0.6393 -5.1154 14.2379 -4.6998 -3.9668 11.6145 0.0614 -5.9763 2.2099 3.5462 -2.9727 -3.6852 -11.1167 0.9214 -16.3330 4.1487 0.1387 38.8388 3.5620 -2.0294 16.7578 -0.0000 -0.0000 0.0000 -84.3612 -63.2367 71.4792 84.1745 -59.8714 -54.9571 -0.0000 -0.0000 30.7075 38.6336 30.4828 22.0697 -7.1250 0.0000 -0.0000 10.3747 66.7060 5.4511 -0.0000 -0.0000 0.0000 82.7241 1.1978 46.2472 -96.4517 59.8421 -65.5844 0.0000 0.0000 62.3145 -47.0011 -9.1848 9.7136 7.1250 -0.0000 -0.0000 -18.1733 -42.5677 -1.1314
0.00 0.00 0.00 179.0030 -39.0431 -165.8970 0.0000 0.0000 0.0000 -20.1067 -0.2549 -74.6628 20.9255 19.9795 92.7068 -1.4213 -23.7459 -3.9738 0.1566 2.5500 7.0282 0.0000 0.0000 0.0000 27.7182 -1.4274 -18.4612 -0.5233 -4.6360 12.8732 1.1224 -18.3774 -7.8425 -0.3359 -3.7243 10.3024 -3.5661 -4.0873 13.9078 0.5122 -6.1098 2.9196 3.5801 -3.0675 -4.2503 -11.3128 0.9966 -15.8285 4.6659 0.0839 38.6644 3.8119 -1.9936 16.5340 -0.0000 0.0000 0.0000 -80.8380 -71.4008 67.1350 81.4099 -59.7193 -52.5678 -0.0000 -0.0000 24.0785 31.1282 30.9511 17.2545 -7.1250 0.0000 -0.0000 -0.4002 64.9934 -0.1935 -0.0000 0.0000 0.0000 81.6206 2.1429 46.1846 -113.7628 57.7550 -80.4241 0.0000 0.0000 63.6283 -40.6576 -10.2147 8.6599 7.1250 -0.0000 -0.0000 -12.4201 -42.9957 -0.6246
0.00 0.00 0.00 183.0710 -37.0240 -172.0700 0.0000 0.0000 0.0000 -15.6711 8.5483 -87.5074 26.2851 19.0253 108.6682 -2.1129 -25.0343 5.2064 0.2076 2.9335 8.0937 0.0000 0.0000 0.0000 32.9112 -1.6515 -21.7999 -1.8792 -8.6098 24.5822 -0.8995 -2.5828 -19.0260 -0.8222 -5.7854 16.1630 -4.1999 -2.9908 14.4931 2.5449 -4.7091 2.8988 5.9098 -2.3769 -4.4744 -11.5792 2.0315 -15.9493 4.5789 1.3857 40.4577 4.0774 -1.7506 17.3744 0.0000 0.0000 0.0000 -73.0697 -80.4838 52.4821 65.4433 -57.5941 -38.9050 -0.0000 -0.0000 18.1088 22.1519 28.3219 10.9318 -7.1250 0.0000 -0.0000 -9.8009 59.9072 -3.5865 0.0000 0.0000 0.0000 80.4887 9.4390 46.8977 -125.1950 54.7587 -89.9434 0.0000 0.0000 64.9029 -28.1497 -10.1643 5.3941 7.1250 -0.0000 -0.0000 -1.0067 -41.4713 -0.0876
0.00 0.00 0.00 181.0970 -39.3828 -172.3950 0.0000 0.0000 0.0000 -13.7882 8.1303 -83.3592 25.7175 19.1975 106.9347 -0.5663 -19.2365 -7.9461 0.5596 -4.7918 -13.3156 0.0000 0.0000 0.0000 31.4183 -3.8172 -18.2934 -1.0754 -6.5918 18.5116 -0.3648 -4.6854 -14.1040 -0.5889 -4.9135 13.6619 -5.6556 -2.8499 13.9978 2.5717 -4.7027 2.8787 6.7219 -2.3681 -4.1041 -12.5443 0.9565 -15.5276 6.0289 -0.4220 39.8011 4.5862 -2.3549 17.1242 -0.0000 -0.0000 0.0000 -82.3328 -79.3732 60.9698 56.2772 -55.2334 -31.2626 -0.0000 -0.0000 18.4031 19.8690 26.1768 9.0579 -7.1250 0.0000 -0.0000 -11.1365 57.2265 -3.3636 -0.0000 -0.0000 0.0000 79.1398 11.0433 47.2360 -115.6105 57.3705 -81.9836 0.0000 0.0000 62.5018 -30.1150 -11.5865 6.6448 7.1250 -0.0000 -0.0000 -2.6977 -43.2976 -0.1134
0.00 0.00 0.00 175.7750 -38.2117 -169.3490 0.0000 0.0000 0.0000 -10.3778 -2.3020 -47.1883 16.4632 19.6974 79.6087 -0.7263 -20.1409 -7.1398 2.1298 -9.1313 -26.2069 0.0000 0.0000 0.0000 24.9624 -1.3311 -19.2925 -1.7524 -8.3302 23.7216 -0.5586 -3.0394 -15.5509 -0.4769 -4.4287 12.2859 -3.2285 -3.2081 11.1497 1.6117 -4.6909 1.7617 4.1633 -2.3239 -3.9980 -12.6637 0.8134 -15.6053 4.4746 0.1767 39.4960 3.9841 -2.3101 16.9346 0.0000 -0.0000 0.0000 -81.3458 -55.7854 51.8164 92.4341 -59.9776 -62.1078 -0.0000 -0.0000 26.2972 40.9842 17.6825 14.7829 -7.1250 0.0000 -0.0000 13.5679 52.3681 2.4982 0.0000 -0.0000 0.0000 80.2366 9.5708 49.8891 -110.4949 58.3518 -77.6509 0.0000 0.0000 62.2855 -28.9667 -10.5145 5.7681 7.1250 -0.0000 -0.0000 -1.7175 -41.9506 -0.1293
0.00 0.00 0.00 176.0310 -37.2106 -168.3710 0.0000 0.0000 0.0000 -13.2224 -3.0709 -42.5782 11.9764 18.3807 65.9141 -1.0691 -21.9395 -5.4502 1.7388 -8.2995 -23.6275 0.0000 0.0000 0.0000 24.6867 -1.2168 -22.8996 -2.5449 -9.9191 28.7152 -0.7640 0.7411 -16.2823 -0.8148 -5.7600 16.0896 -2.1295 -3.2413 10.7613 2.0218 -4.5700 1.4467 3.9473 -2.2643 -4.1755 -12.3134 0.7734 -15.2874 4.7009 -0.2280 39.4608 3.9460 -2.4044 16.8754 -0.0000 0.0000 0.0000 -81.3543 -42.5756 50.9351 110.1220 -58.4134 -77.3333 -0.0000 -0.0000 26.7080 61.4679 24.0807 36.8875 -7.1250 0.0000 -0.0000 50.1825 66.3958 28.8460 -0.0000 0.0000 0.0000 80.6523 9.9745 49.5138 -112.0183 58.0865 -78.9459 0.0000 0.0000 64.2604 -28.3470 -9.4929 5.0847 7.1250 -0.0000 -0.0000 -1.2253 -40.7346 -0.1289
0.00 0.00 0.00 176.5150 -34.7335 -167.0710 0.0000 0.0000 0.0000 -16.2201 -3.9661 -38.1281 7.3343 15.6071 50.1277 -0.8986 -19.3059 -3.6028 1.4107 -7.5124 -21.2425 0.0000 0.0000 0.0000 24.1199 0.3722 -26.5638 -3.4047 -11.3231 33.3773 -0.8663 3.6688 -16.7350 -0.7730 -5.6139 15.6682 -3.1143 -2.6122 10.4950 3.2000 -3.8222 1.4968 5.6254 -1.8966 -3.8889 -10.5592 0.4418 -14.7066 3.2633 -1.0944 39.6536 2.8127 -2.7437 16.9289 -0.0000 0.0000 0.0000 -83.2726 -24.4654 53.4363 111.1954 -58.2325 -78.2469 -0.0000 -0.0000 26.5026 62.3633 24.6453 38.5339 -7.1250 0.0000 -0.0000 53.4683 67.2492 32.1420 -0.0000 0.0000 0.0000 79.9326 10.5368 48.7043 -115.8681 57.3141 -82.2004 0.0000 0.0000 64.8853 -26.8553 -7.2832 3.6729 7.1250 -0.0000 -0.0000 -0.0490 -38.1321 -0.0083
0.00 0.00 0.00 176.8170 -33.4611 -166.6100 0.0000 0.0000 0.0000 -17.3864 -5.9818 -36.0078 5.4768 13.9014 42.8439 -0.3077 -14.3228 -5.9450 1.3133 -7.2587 -20.4842 0.0000 0.0000 0.0000 23.5678 1.1988 -28.5999 -3.9425 -12.0835 36.0282 -0.8457 5.1358 -16.4091 -0.7773 -5.6291 15.7118 -2.1523 -2.2064 11.1031 2.5475 -3.2202 1.8458 4.3390 -1.6192 -4.0222 -10.2960 -0.2023 -14.3232 4.7096 -2.8367 39.3146 3.1104 -3.1926 16.8341 0.0000 0.0000 0.0000 -83.3549 -18.3843 55.0625 94.6822 -59.9170 -64.0537 -0.0000 -0.0000 29.2848 56.9385 19.9049 27.6110 -7.1250 0.0000 -0.0000 35.7025 59.8258 13.9836 0.0000 0.0000 0.0000 80.7839 10.8415 47.2993 -118.6533 56.6582 -84.5361 0.0000 0.0000 64.5585 -26.0756 -6.7393 3.2868 7.1250 -0.0000 -0.0000 0.5878 -37.4738 0.1089
